<svg role="img" xmlns="http://www.w3.org/2000/svg" width="300" height="104.74" viewBox="0 0 300 104.74"><title>sesame communications</title><path d="M4.45 95.05c1.1 1.39 2.31 2.49 3.62 3.3 1.32 0.82 2.98 1.22 4.99 1.22 0.86 0 1.73-0.09 2.62-0.29 0.88-0.19 1.69-0.5 2.4-0.93 0.72-0.43 1.29-0.97 1.72-1.62 0.43-0.65 0.65-1.42 0.65-2.33s-0.2-1.65-0.61-2.22c-0.41-0.58-0.94-1.07-1.61-1.47s-1.43-0.73-2.3-0.97c-0.86-0.24-1.75-0.45-2.66-0.64 -1.58-0.33-3.09-0.72-4.52-1.15 -1.44-0.43-2.69-0.99-3.77-1.69 -1.08-0.69-1.94-1.59-2.58-2.69 -0.65-1.1-0.97-2.51-0.97-4.23 0-1.63 0.36-3.06 1.08-4.31 0.72-1.24 1.67-2.27 2.87-3.08 1.2-0.81 2.54-1.44 4.02-1.87 1.48-0.43 3.01-0.65 4.59-0.65 2.39 0 4.6 0.48 6.64 1.44 2.03 0.96 3.62 2.51 4.77 4.66l-4.66 3.09c-0.72-1.19-1.66-2.17-2.83-2.91 -1.17-0.74-2.59-1.11-4.27-1.11 -0.77 0-1.54 0.1-2.33 0.29 -0.79 0.19-1.5 0.48-2.12 0.86 -0.62 0.38-1.14 0.87-1.54 1.47 -0.41 0.6-0.61 1.28-0.61 2.04 0 0.72 0.23 1.33 0.68 1.83 0.45 0.5 1.08 0.95 1.87 1.33 0.79 0.39 1.7 0.72 2.73 1.01 1.03 0.29 2.09 0.53 3.19 0.72 1.48 0.28 2.9 0.66 4.23 1.11 1.34 0.45 2.51 1.07 3.52 1.83 1 0.76 1.79 1.72 2.37 2.87 0.57 1.15 0.86 2.56 0.86 4.24 0 1.91-0.38 3.54-1.15 4.88 -0.77 1.34-1.78 2.43-3.05 3.27 -1.27 0.83-2.7 1.45-4.31 1.83 -1.6 0.38-3.24 0.57-4.92 0.57 -2.87 0-5.35-0.44-7.43-1.33 -2.08-0.89-3.96-2.52-5.63-4.92L4.45 95.05zM64.29 97.78c-2.01 2.58-4.21 4.39-6.6 5.42 -2.39 1.03-5.17 1.54-8.32 1.54 -2.63 0-5-0.47-7.1-1.4 -2.11-0.93-3.89-2.19-5.35-3.77 -1.46-1.58-2.58-3.44-3.37-5.59 -0.79-2.15-1.18-4.45-1.18-6.89 0-2.58 0.43-4.96 1.29-7.14s2.06-4.04 3.59-5.6c1.53-1.56 3.35-2.76 5.46-3.62 2.1-0.86 4.4-1.29 6.89-1.29 2.34 0 4.5 0.39 6.46 1.18 1.96 0.79 3.65 1.94 5.06 3.45 1.41 1.51 2.5 3.35 3.26 5.52 0.77 2.18 1.15 4.65 1.15 7.43v1.79H38.39c0.1 1.44 0.44 2.81 1.04 4.12 0.6 1.32 1.38 2.47 2.33 3.44 0.96 0.98 2.08 1.76 3.37 2.33 1.29 0.57 2.7 0.86 4.23 0.86 2.44 0 4.5-0.43 6.17-1.29 1.67-0.86 3.18-2.13 4.52-3.8L64.29 97.78zM59.49 84.07c-0.1-2.87-1.03-5.17-2.8-6.89 -1.77-1.73-4.21-2.58-7.32-2.58 -3.11 0-5.62 0.86-7.54 2.58 -1.91 1.72-3.06 4.02-3.44 6.89H59.49zM74.91 95.05c1.1 1.39 2.31 2.49 3.62 3.3 1.31 0.82 2.98 1.22 4.99 1.22 0.86 0 1.73-0.09 2.62-0.29 0.88-0.19 1.69-0.5 2.4-0.93 0.72-0.43 1.29-0.97 1.72-1.62 0.43-0.65 0.65-1.42 0.65-2.33s-0.2-1.65-0.61-2.22c-0.41-0.58-0.95-1.07-1.62-1.47 -0.67-0.41-1.44-0.73-2.3-0.97 -0.86-0.24-1.74-0.45-2.65-0.64 -1.58-0.33-3.09-0.72-4.52-1.15 -1.44-0.43-2.69-0.99-3.77-1.69 -1.08-0.69-1.94-1.59-2.58-2.69 -0.64-1.1-0.97-2.51-0.97-4.23 0-1.63 0.36-3.06 1.08-4.31 0.72-1.24 1.67-2.27 2.87-3.08 1.2-0.81 2.53-1.44 4.02-1.87 1.48-0.43 3.01-0.65 4.59-0.65 2.39 0 4.6 0.48 6.64 1.44 2.03 0.96 3.62 2.51 4.77 4.66l-4.67 3.09c-0.72-1.19-1.66-2.17-2.83-2.91 -1.17-0.74-2.59-1.11-4.27-1.11 -0.76 0-1.54 0.1-2.33 0.29 -0.79 0.19-1.5 0.48-2.12 0.86 -0.62 0.38-1.14 0.87-1.54 1.47 -0.41 0.6-0.61 1.28-0.61 2.04 0 0.72 0.23 1.33 0.68 1.83 0.45 0.5 1.07 0.95 1.87 1.33 0.79 0.39 1.7 0.72 2.73 1.01 1.03 0.29 2.09 0.53 3.19 0.72 1.48 0.28 2.89 0.66 4.23 1.11 1.34 0.45 2.51 1.07 3.51 1.83 1.01 0.76 1.79 1.72 2.37 2.87 0.57 1.15 0.86 2.56 0.86 4.24 0 1.91-0.38 3.54-1.15 4.88 -0.77 1.34-1.78 2.43-3.05 3.27 -1.27 0.83-2.7 1.45-4.31 1.83 -1.6 0.38-3.24 0.57-4.91 0.57 -2.87 0-5.34-0.44-7.43-1.33 -2.08-0.89-3.96-2.52-5.63-4.92L74.91 95.05zM104.33 74.6c1.72-1.77 3.77-3.07 6.14-3.91 2.37-0.83 4.77-1.25 7.21-1.25 4.98 0 8.56 1.17 10.76 3.52s3.3 5.91 3.3 10.69v14.42c0 0.96 0.05 1.95 0.14 2.98 0.1 1.03 0.22 1.97 0.36 2.83h-5.38c-0.19-0.76-0.3-1.61-0.32-2.54 -0.03-0.93-0.04-1.76-0.04-2.48h-0.14c-1.1 1.72-2.57 3.13-4.41 4.23 -1.84 1.1-4.05 1.65-6.64 1.65 -1.72 0-3.34-0.21-4.84-0.65 -1.51-0.43-2.82-1.06-3.95-1.9 -1.12-0.84-2.02-1.88-2.69-3.12 -0.67-1.24-1.01-2.68-1.01-4.31 0-2.77 0.72-4.95 2.15-6.53 1.44-1.58 3.22-2.75 5.34-3.51 2.13-0.77 4.42-1.25 6.89-1.44 2.46-0.19 4.72-0.29 6.78-0.29h2.15v-1c0-2.44-0.73-4.28-2.19-5.53 -1.46-1.24-3.51-1.86-6.14-1.86 -1.82 0-3.6 0.3-5.35 0.9 -1.74 0.6-3.29 1.52-4.63 2.76L104.33 74.6zM120.55 87.73c-3.59 0-6.43 0.5-8.54 1.51 -2.1 1.01-3.16 2.66-3.16 4.95 0 2.11 0.71 3.6 2.12 4.49 1.41 0.88 3.17 1.33 5.27 1.33 1.63 0 3.05-0.27 4.27-0.82 1.22-0.55 2.23-1.28 3.05-2.19 0.81-0.91 1.43-1.97 1.86-3.2 0.43-1.22 0.67-2.52 0.72-3.91v-2.15H120.55zM142 78.26c0-1.53-0.05-2.97-0.14-4.31 -0.1-1.34-0.14-2.56-0.14-3.66h5.31c0 0.91 0.03 1.82 0.07 2.73 0.05 0.91 0.07 1.84 0.07 2.8h0.14c0.38-0.82 0.92-1.6 1.61-2.37 0.7-0.76 1.52-1.45 2.48-2.04 0.96-0.6 2.03-1.07 3.23-1.44 1.19-0.36 2.49-0.54 3.87-0.54 1.82 0 3.33 0.23 4.55 0.68 1.22 0.46 2.24 1 3.05 1.65 0.81 0.65 1.45 1.34 1.9 2.08 0.45 0.74 0.83 1.4 1.11 1.97 1.24-2.01 2.68-3.58 4.31-4.7 1.62-1.12 3.73-1.68 6.31-1.68 2.39 0 4.4 0.32 6.03 0.97 1.62 0.65 2.94 1.58 3.95 2.8 1 1.22 1.72 2.7 2.15 4.45 0.43 1.75 0.65 3.69 0.65 5.85v20.38h-5.6V83.78c0-1.15-0.12-2.27-0.36-3.37 -0.24-1.1-0.67-2.08-1.29-2.94 -0.62-0.86-1.46-1.55-2.51-2.08 -1.05-0.53-2.4-0.79-4.02-0.79 -1.19 0-2.32 0.24-3.37 0.72 -1.05 0.48-1.97 1.15-2.76 2.01 -0.79 0.86-1.41 1.9-1.87 3.12 -0.45 1.22-0.68 2.57-0.68 4.05v19.37h-5.6V84.86c0-3.73-0.5-6.38-1.51-7.93 -1-1.55-2.66-2.33-4.95-2.33 -1.82 0-3.38 0.31-4.7 0.93 -1.32 0.62-2.4 1.51-3.23 2.66 -0.84 1.15-1.46 2.51-1.86 4.09 -0.41 1.58-0.61 3.32-0.61 5.24v16.36H142V78.26zM233.14 97.78c-2.01 2.58-4.21 4.39-6.6 5.42 -2.39 1.03-5.17 1.54-8.32 1.54 -2.63 0-5-0.47-7.1-1.4 -2.11-0.93-3.89-2.19-5.34-3.77 -1.46-1.58-2.58-3.44-3.38-5.59 -0.79-2.15-1.18-4.45-1.18-6.89 0-2.58 0.43-4.96 1.29-7.14 0.86-2.18 2.06-4.04 3.59-5.6 1.53-1.56 3.35-2.76 5.45-3.62 2.1-0.86 4.4-1.29 6.89-1.29 2.35 0 4.5 0.39 6.46 1.18 1.96 0.79 3.65 1.94 5.06 3.45 1.41 1.51 2.5 3.35 3.26 5.52 0.76 2.18 1.15 4.65 1.15 7.43v1.79h-27.13c0.1 1.44 0.44 2.81 1.04 4.12 0.6 1.32 1.38 2.47 2.33 3.44 0.95 0.98 2.08 1.76 3.37 2.33 1.29 0.57 2.7 0.86 4.23 0.86 2.44 0 4.5-0.43 6.17-1.29 1.68-0.86 3.18-2.13 4.52-3.8L233.14 97.78zM228.33 84.07c-0.1-2.87-1.03-5.17-2.8-6.89 -1.77-1.73-4.21-2.58-7.32-2.58 -3.11 0-5.62 0.86-7.53 2.58 -1.92 1.72-3.06 4.02-3.45 6.89H228.33z" fill="#09C"/><path d="M251.4 38.08c-2.8-1.46-6.66-1.44-8.96 0.96 -2.34 2.46-0.78 6.14 2 7.8 2.72 1.6 6.98 1.46 9.02-0.84C255.78 43.37 254.37 39.61 251.4 38.08M239.87 53.31c-3.1-1.64-7.38-1.68-10.02 0.64 -3.36 2.94-1.76 7.54 2.08 9.76 3.16 1.82 7.98 1.44 10.26-1.02C244.94 59.69 243.56 55.27 239.87 53.31M234.12 18.87c2.62 1.34 3.44 4.2 0.72 6.04 -2.5 1.7-6.32 1.54-8.9 0.02 -2.46-1.44-2.9-4.2-0.2-5.84C228.11 17.66 231.65 17.61 234.12 18.87M251.5 18.37c-2.82-1.44-7.32-1.2-8.06 1.42 -0.64 2.3 2.76 5.38 7.28 4.94 1.38-0.14 3.26-0.94 3.52-2.58C254.53 20.4 252.89 19.09 251.5 18.37M260.14 26.63c-1.92-0.94-5.36-1.54-7.12 0.14 -2.06 1.98-0.52 4.8 1.78 6.18 2.28 1.34 5.68 1.58 7.56-0.22C264.51 30.69 262.44 27.75 260.14 26.63M273.15 29.31c2.4 1.24 4.38 3.66 3.36 5.78 -1.08 2.24-4.46 2.22-7.1 0.88 -2.66-1.34-4.26-4.16-2.98-6.04C267.82 27.81 271.06 28.25 273.15 29.31M281.44 43.59c2.7 1.38 5.2 4.76 4 7.88 -1.28 3.3-5.38 2.86-7.88 1.38 -2.38-1.4-4.76-4.26-4.02-7.2C274.42 42.07 278.8 42.23 281.44 43.59M266.84 17.85c-1.78-0.86-4.86-1.46-6.32 0.18 -0.3 0.34-0.46 0.74-0.5 1.14 -0.12 1.54 1.38 3.1 3.3 3.92 2.24 0.96 5.04 0.92 6.08-0.66C270.6 20.61 268.44 18.61 266.84 17.85" fill="#09C"/><path d="M252.66 11.11c-1.64-0.78-4.06-1.08-5.56-0.1 -1.96 1.28-0.56 3.22 1.16 4.08 1.96 0.98 4.18 1.04 5.6 0.24C255.46 14.45 255.24 12.35 252.66 11.11M296.28 32.59c1.76 0.86 4.06 3.1 3.68 5.04 -0.08 0.42-0.28 0.76-0.58 1.02 -2.74 2.16-9.14-2.22-8.26-5.42 0.12-0.4 0.38-0.72 0.7-0.94C293.06 31.43 295 31.95 296.28 32.59M281 25.05c2.12 1.06 3.78 3.2 3.09 4.68 -0.8 1.76-3.56 1.62-5.68 0.52 -2.02-1.04-3.6-2.96-2.72-4.7C276.31 24.29 278.62 23.87 281 25.05M279.74 17.45c1.76 0.8 3.44 2.56 2.78 3.9 -0.72 1.44-3.12 1.06-4.34 0.62 -1.46-0.52-3.4-1.8-3.6-3.46 -0.04-0.34 0.04-0.72 0.28-0.98C275.86 16.27 278.28 16.77 279.74 17.45M291.44 16.95c1.98 1 3.38 2.46 2.98 3.68 -0.54 1.66-3.38 0.88-4.52 0.34 -1.34-0.66-3.6-2.46-2.92-3.86C287.7 15.67 290.36 16.42 291.44 16.95M271.9 11.09c1.22 0.6 3.04 2.06 2.2 3.46 -0.66 1.08-3.08 1.02-4.92 0.12 -1.34-0.64-2.98-2-2.4-3.32C267.2 10.33 269.58 9.98 271.9 11.09M261.22 8.55c2.48 1.26 2.58 2.6 1.94 3.42 -0.6 0.78-2.7 1.14-4.94 0.26 -2.18-0.88-3.54-2.6-2.32-3.76C256.87 7.54 259.42 7.61 261.22 8.55M239.49 4.63c2.04 0.96 2.86 2.88 0.64 3.84 -1.68 0.74-3.84 0.42-5.5-0.26 -1.94-0.76-3.04-2.66-1.26-3.7C235.03 3.54 237.73 3.79 239.49 4.63M256.88 0.71c0.8 0.38 2.14 1.2 1.98 2.24 -0.04 0.24-0.16 0.48-0.38 0.66 -0.96 0.8-2.96 0.66-4.28 0.24 -1.86-0.58-3.28-2.02-2.64-2.98C252.32-0.3 254.92-0.23 256.88 0.71M276.14 5.58c1.8 0.88 2.62 2.14 2.18 2.84 -0.64 0.98-2.72 0.68-3.7 0.3 -1.11-0.42-2.94-1.42-3.04-2.66 -0.02-0.24 0.04-0.48 0.24-0.68C272.65 4.5 275.06 5.05 276.14 5.58" fill="#B9D233"/></svg>