<?xml version="1.0" encoding="iso-8859-1"?>
<!-- Generator: Adobe Illustrator 16.0.0, SVG Export Plug-In . SVG Version: 6.00 Build 0)  -->
<!DOCTYPE svg PUBLIC "-//W3C//DTD SVG 1.1//EN" "http://www.w3.org/Graphics/SVG/1.1/DTD/svg11.dtd">
<svg version="1.1" id="Layer_1" xmlns="http://www.w3.org/2000/svg" xmlns:xlink="http://www.w3.org/1999/xlink" x="0px" y="0px"
	 width="32px" height="32px" viewBox="0 0 32 32" style="enable-background:new 0 0 32 32;" xml:space="preserve">
<path style="fill:#007BB5;" d="M11.562,18.008c-1.182-0.616-2.805-0.608-3.77,0.404c-0.979,1.032-0.331,2.583,0.84,3.279
	c1.142,0.673,2.931,0.614,3.792-0.355C13.405,20.236,12.807,18.663,11.562,18.008 M6.711,24.422c-1.3-0.689-3.101-0.711-4.217,0.269
	c-1.41,1.236-0.74,3.168,0.875,4.104c1.328,0.769,3.359,0.608,4.313-0.427C8.845,27.105,8.265,25.246,6.711,24.422 M4.298,9.94
	c1.1,0.558,1.448,1.762,0.302,2.536c-1.048,0.71-2.656,0.647-3.742,0.006c-1.029-0.604-1.224-1.767-0.085-2.459
	C1.767,9.422,3.251,9.406,4.298,9.94 M11.603,9.729c-1.186-0.605-3.08-0.505-3.389,0.597c-0.269,0.964,1.163,2.262,3.062,2.075
	c0.583-0.055,1.367-0.393,1.478-1.082C12.875,10.573,12.187,10.029,11.603,9.729 M15.235,13.197
	c-0.812-0.396-2.258-0.649-2.993,0.058c-0.865,0.83-0.217,2.022,0.748,2.597c0.955,0.566,2.392,0.662,3.178-0.089
	C17.068,14.908,16.202,13.67,15.235,13.197 M20.701,14.327c1.013,0.519,1.841,1.536,1.409,2.429
	c-0.451,0.944-1.878,0.938-2.986,0.373c-1.119-0.568-1.796-1.747-1.258-2.545C18.467,13.693,19.826,13.878,20.701,14.327
	 M24.189,20.328c1.132,0.583,2.19,2,1.68,3.314c-0.538,1.387-2.259,1.204-3.313,0.584c-1.002-0.586-2.004-1.795-1.694-3.031
	C21.237,19.69,23.08,19.757,24.189,20.328 M18.057,9.505c-0.744-0.363-2.043-0.619-2.658,0.075
	c-0.129,0.143-0.197,0.307-0.212,0.484c-0.052,0.642,0.583,1.302,1.388,1.648c0.938,0.405,2.115,0.383,2.556-0.277
	C19.636,10.674,18.732,9.83,18.057,9.505"/>
<path style="fill:#BACD1E;" d="M12.096,6.673c-0.689-0.329-1.704-0.451-2.338-0.041C8.934,7.167,9.524,7.984,10.25,8.348
	c0.82,0.41,1.753,0.434,2.358,0.097C13.268,8.078,13.181,7.193,12.096,6.673 M30.434,15.703c0.74,0.362,1.705,1.307,1.549,2.119
	c-0.034,0.177-0.116,0.321-0.245,0.429c-1.147,0.912-3.845-0.931-3.476-2.278c0.047-0.169,0.154-0.3,0.289-0.394
	C29.076,15.217,29.897,15.441,30.434,15.703 M24.007,12.535c0.893,0.445,1.588,1.341,1.304,1.964
	c-0.337,0.739-1.496,0.681-2.389,0.216c-0.849-0.439-1.513-1.243-1.147-1.977C22.037,12.221,23.01,12.038,24.007,12.535
	 M23.479,9.342c0.738,0.338,1.444,1.076,1.166,1.634c-0.303,0.605-1.312,0.444-1.82,0.261c-0.611-0.22-1.432-0.757-1.519-1.458
	c-0.017-0.143,0.021-0.299,0.114-0.413C21.848,8.842,22.863,9.057,23.479,9.342 M28.397,9.132c0.836,0.418,1.42,1.037,1.257,1.545
	c-0.227,0.701-1.42,0.372-1.898,0.143c-0.565-0.274-1.515-1.035-1.227-1.625C26.822,8.592,27.944,8.904,28.397,9.132 M20.185,6.667
	c0.51,0.25,1.28,0.87,0.925,1.452c-0.277,0.456-1.295,0.432-2.071,0.052c-0.561-0.272-1.253-0.838-1.015-1.399
	C18.21,6.348,19.21,6.193,20.185,6.667 M15.695,5.595c1.045,0.53,1.082,1.092,0.817,1.441C16.26,7.365,15.38,7.52,14.438,7.143
	c-0.918-0.372-1.485-1.09-0.977-1.585C13.857,5.171,14.935,5.206,15.695,5.595 M6.549,3.947C7.404,4.351,7.748,5.155,6.82,5.563
	C6.114,5.876,5.209,5.74,4.507,5.457C3.695,5.132,3.226,4.335,3.979,3.898C4.678,3.488,5.807,3.6,6.549,3.947 M13.87,2.301
	c0.336,0.16,0.904,0.504,0.833,0.941c-0.015,0.104-0.064,0.2-0.158,0.277c-0.401,0.339-1.243,0.272-1.804,0.098
	c-0.78-0.247-1.381-0.852-1.113-1.254C11.951,1.875,13.045,1.902,13.87,2.301 M21.964,4.344c0.756,0.368,1.104,0.902,0.916,1.193
	c-0.268,0.414-1.142,0.282-1.552,0.127c-0.475-0.175-1.239-0.597-1.275-1.114c-0.006-0.105,0.019-0.2,0.098-0.288
	C20.49,3.891,21.51,4.123,21.964,4.344"/>
</svg>
