<?xml version="1.0" encoding="iso-8859-1"?>
<!-- Generator: Adobe Illustrator 16.0.0, SVG Export Plug-In . SVG Version: 6.00 Build 0)  -->
<!DOCTYPE svg PUBLIC "-//W3C//DTD SVG 1.1//EN" "http://www.w3.org/Graphics/SVG/1.1/DTD/svg11.dtd">
<svg version="1.1" id="Layer_1" xmlns="http://www.w3.org/2000/svg" xmlns:xlink="http://www.w3.org/1999/xlink" x="0px" y="0px"
	 width="32px" height="32px" viewBox="0 0 32 32" style="enable-background:new 0 0 32 32;" xml:space="preserve">
<path d="M0,0v32h32V0H0z M24.191,14.332c-0.306,0.67-1.354,0.616-2.164,0.197c-0.771-0.396-1.37-1.129-1.036-1.791
	c0.229-0.48,1.112-0.641,2.021-0.189C23.816,12.951,24.451,13.768,24.191,14.332z M23.589,11.137
	c-0.271,0.549-1.188,0.406-1.653,0.237c-0.557-0.198-1.295-0.687-1.371-1.317c-0.017-0.13,0.016-0.274,0.105-0.375
	c0.385-0.479,1.303-0.289,1.859-0.031C23.202,9.958,23.84,10.627,23.589,11.137z M19.512,5.047c0.313-0.333,1.234-0.12,1.647,0.079
	c0.687,0.333,0.998,0.813,0.831,1.082c-0.246,0.374-1.039,0.258-1.412,0.114c-0.426-0.159-1.119-0.539-1.157-1.014
	C19.414,5.216,19.438,5.125,19.512,5.047z M17.592,7.327c0.158-0.388,1.065-0.525,1.95-0.099c0.466,0.228,1.157,0.785,0.838,1.316
	c-0.251,0.412-1.171,0.393-1.872,0.047C17.998,8.348,17.372,7.831,17.592,7.327z M16.213,7.564c-0.228,0.297-1.031,0.433-1.884,0.1
	c-0.83-0.338-1.349-0.992-0.883-1.434c0.366-0.36,1.341-0.33,2.028,0.028C16.419,6.742,16.457,7.252,16.213,7.564z M11.792,3.333
	c0.29-0.45,1.28-0.418,2.028-0.06c0.305,0.145,0.816,0.457,0.754,0.853c-0.016,0.092-0.061,0.185-0.145,0.254
	c-0.366,0.304-1.127,0.25-1.631,0.089C12.089,4.249,11.548,3.701,11.792,3.333z M10.092,7.198c0.571-0.374,1.494-0.259,2.119,0.038
	c0.983,0.472,1.066,1.271,0.458,1.604c-0.542,0.308-1.388,0.283-2.135-0.089C9.879,8.426,9.345,7.686,10.092,7.198z M8.697,10.542
	c0.283-0.996,1.998-1.09,3.071-0.541c0.527,0.274,1.153,0.771,1.045,1.442c-0.099,0.623-0.816,0.928-1.342,0.979
	C9.75,12.593,8.453,11.42,8.697,10.542z M4.855,4.721C5.49,4.348,6.518,4.448,7.189,4.766c0.778,0.365,1.09,1.101,0.243,1.465
	c-0.64,0.281-1.462,0.16-2.096-0.1C4.599,5.84,4.177,5.117,4.855,4.721z M1.951,10.275c0.901-0.547,2.251-0.562,3.195-0.084
	c0.997,0.512,1.309,1.602,0.274,2.303c-0.952,0.648-2.407,0.586-3.392,0.008C1.091,11.954,0.923,10.902,1.951,10.275z M8.218,26.893
	c-0.871,0.938-2.707,1.08-3.911,0.389c-1.464-0.848-2.073-2.6-0.792-3.721c1.006-0.886,2.638-0.867,3.818-0.242
	C8.744,24.062,9.27,25.749,8.218,26.893z M12.515,20.525c-0.777,0.877-2.4,0.931-3.438,0.324c-1.058-0.638-1.653-2.037-0.761-2.977
	c0.876-0.915,2.346-0.924,3.415-0.365C12.859,18.096,13.399,19.527,12.515,20.525z M15.908,15.475
	c-0.716,0.687-2.013,0.594-2.881,0.084c-0.877-0.525-1.463-1.602-0.679-2.354c0.67-0.641,1.981-0.412,2.712-0.055
	C15.938,13.577,16.725,14.697,15.908,15.475z M16.273,11.801c-0.732-0.312-1.304-0.906-1.257-1.492
	c0.015-0.151,0.075-0.307,0.19-0.436c0.556-0.624,1.729-0.396,2.407-0.068c0.611,0.289,1.434,1.051,0.979,1.744
	C18.195,12.152,17.127,12.167,16.273,11.801z M17.455,14.408c0.533-0.809,1.768-0.641,2.561-0.236
	c0.914,0.473,1.67,1.395,1.279,2.202c-0.408,0.854-1.699,0.847-2.703,0.336C17.576,16.198,16.968,15.125,17.455,14.408z
	 M24.702,22.616c-0.488,1.257-2.052,1.091-3.002,0.526c-0.906-0.535-1.813-1.625-1.532-2.744c0.333-1.364,2.004-1.305,3.012-0.785
	C24.208,20.141,25.161,21.427,24.702,22.616z M25.289,9.521c0.273-0.549,1.288-0.268,1.697-0.061
	c0.756,0.381,1.291,0.938,1.137,1.402c-0.204,0.631-1.288,0.335-1.721,0.129C25.893,10.741,25.029,10.057,25.289,9.521z
	 M30.232,17.341c-0.028,0.16-0.104,0.289-0.217,0.392c-1.045,0.822-3.484-0.848-3.15-2.066c0.048-0.15,0.146-0.273,0.269-0.357
	c0.474-0.328,1.212-0.131,1.698,0.114C29.505,15.749,30.381,16.602,30.232,17.341z"/>
</svg>
