<svg role="img" xmlns="http://www.w3.org/2000/svg" width="190" height="51" viewBox="0 0 190 51"><title>invisalign provider</title><path d="M54.76 41.87h3.97c1.04 0 1.84 0.28 2.39 0.83 0.27 0.27 0.48 0.59 0.63 0.94 0.15 0.36 0.22 0.75 0.22 1.19 0 0.42-0.07 0.81-0.21 1.16 -0.14 0.35-0.34 0.65-0.6 0.91 -0.26 0.25-0.57 0.45-0.94 0.59 -0.37 0.14-0.78 0.21-1.25 0.21h-2.14v3.1h-2.08V41.87zM56.83 46.08h1.74c0.43 0 0.76-0.11 0.99-0.34s0.34-0.53 0.34-0.91c0-0.39-0.11-0.69-0.34-0.91s-0.55-0.32-0.98-0.32h-1.75V46.08zM63.47 41.87h4.25c0.43 0 0.83 0.06 1.21 0.17 0.37 0.11 0.69 0.28 0.97 0.5 0.27 0.22 0.49 0.49 0.64 0.8 0.16 0.32 0.23 0.68 0.23 1.09 0 0.53-0.13 0.98-0.4 1.35 -0.26 0.37-0.68 0.64-1.26 0.83v0.04c0.45 0.14 0.78 0.34 0.99 0.61 0.21 0.27 0.35 0.64 0.41 1.12 0.04 0.3 0.07 0.59 0.09 0.86s0.04 0.51 0.06 0.72c0.02 0.21 0.05 0.38 0.08 0.52 0.03 0.13 0.08 0.21 0.16 0.25v0.1H68.88c-0.06-0.03-0.11-0.11-0.14-0.24 -0.03-0.13-0.05-0.28-0.07-0.47s-0.04-0.4-0.05-0.63c-0.02-0.23-0.04-0.47-0.06-0.72 -0.06-0.45-0.2-0.78-0.44-1.01 -0.24-0.22-0.6-0.34-1.1-0.34h-1.51v3.41h-2.04V41.87L63.47 41.87zM65.51 45.87h1.81c0.46 0 0.8-0.1 1.04-0.32 0.24-0.21 0.36-0.5 0.36-0.86 0-0.37-0.11-0.66-0.33-0.88 -0.22-0.22-0.56-0.33-1.01-0.33h-1.87V45.87zM76.57 51.01c-0.68 0-1.29-0.12-1.84-0.35s-1.01-0.56-1.39-0.97c-0.38-0.42-0.68-0.91-0.88-1.48s-0.31-1.18-0.31-1.85c0-0.67 0.1-1.29 0.31-1.86 0.2-0.57 0.5-1.06 0.88-1.47 0.38-0.41 0.85-0.74 1.39-0.97 0.54-0.23 1.16-0.35 1.84-0.35 0.67 0 1.28 0.12 1.82 0.35 0.54 0.24 1.01 0.56 1.39 0.97 0.38 0.41 0.68 0.9 0.88 1.47 0.2 0.57 0.31 1.19 0.31 1.86 0 0.66-0.1 1.28-0.31 1.85s-0.5 1.06-0.88 1.48c-0.38 0.42-0.85 0.74-1.39 0.97S77.24 51.01 76.57 51.01zM76.58 49.33c0.38 0 0.72-0.08 1.01-0.23 0.29-0.15 0.53-0.36 0.72-0.62 0.19-0.26 0.34-0.58 0.43-0.94 0.1-0.36 0.14-0.75 0.14-1.18s-0.05-0.82-0.14-1.18c-0.1-0.36-0.24-0.68-0.43-0.95 -0.19-0.27-0.43-0.48-0.72-0.64 -0.29-0.15-0.62-0.23-1.01-0.23s-0.72 0.08-1.01 0.23c-0.29 0.15-0.54 0.36-0.73 0.64 -0.2 0.27-0.34 0.59-0.44 0.96 -0.1 0.36-0.15 0.76-0.15 1.18s0.05 0.82 0.15 1.18 0.25 0.67 0.44 0.94c0.2 0.27 0.44 0.47 0.73 0.63C75.86 49.25 76.2 49.33 76.58 49.33zM81.53 41.87h2.12l1.32 4.3c0.07 0.25 0.14 0.52 0.22 0.83s0.14 0.59 0.2 0.85c0.07 0.32 0.14 0.64 0.19 0.95h0.02c0.06-0.31 0.12-0.63 0.19-0.95 0.06-0.26 0.12-0.55 0.19-0.85 0.07-0.3 0.14-0.58 0.22-0.83l1.31-4.3h2.06l-2.95 8.93H84.48L81.53 41.87zM90.94 41.87h2.05v8.93h-2.05V41.87zM95.02 41.87h3.72c0.62 0 1.19 0.11 1.7 0.32 0.51 0.22 0.94 0.52 1.3 0.91 0.36 0.39 0.64 0.87 0.83 1.43 0.19 0.56 0.29 1.18 0.29 1.86 0 0.66-0.09 1.27-0.28 1.81 -0.18 0.54-0.46 1-0.82 1.39 -0.36 0.38-0.8 0.68-1.33 0.89 -0.53 0.21-1.13 0.32-1.81 0.32h-3.6V41.87L95.02 41.87zM98.46 49.06c0.78 0 1.35-0.23 1.73-0.69 0.38-0.46 0.57-1.12 0.57-1.98 0-0.85-0.19-1.52-0.57-2.03 -0.38-0.51-0.94-0.76-1.7-0.76h-1.43v5.47H98.46zM104.45 41.87h6.7v1.7h-4.66v1.78h4.03v1.62h-4.03v2.08h4.74v1.75h-6.78V41.87zM112.97 41.87h4.25c0.43 0 0.83 0.06 1.21 0.17 0.37 0.11 0.69 0.28 0.97 0.5 0.27 0.22 0.49 0.49 0.64 0.8s0.23 0.68 0.23 1.09c0 0.53-0.13 0.98-0.4 1.35 -0.26 0.37-0.68 0.64-1.26 0.83v0.04c0.45 0.14 0.78 0.34 0.99 0.61 0.21 0.27 0.35 0.64 0.41 1.12 0.04 0.3 0.07 0.59 0.09 0.86 0.02 0.27 0.04 0.51 0.06 0.72 0.02 0.21 0.05 0.38 0.08 0.52 0.03 0.13 0.09 0.21 0.16 0.25v0.1h-2.02c-0.06-0.03-0.11-0.11-0.14-0.24 -0.03-0.13-0.05-0.28-0.07-0.47s-0.04-0.4-0.05-0.63 -0.04-0.47-0.06-0.72c-0.06-0.45-0.2-0.78-0.44-1.01 -0.24-0.22-0.6-0.34-1.1-0.34h-1.51v3.41h-2.04V41.87L112.97 41.87zM115.01 45.87h1.81c0.46 0 0.81-0.1 1.05-0.32 0.24-0.21 0.36-0.5 0.36-0.86 0-0.37-0.11-0.66-0.33-0.88 -0.22-0.22-0.56-0.33-1.01-0.33h-1.87V45.87L115.01 45.87z" fill="#5D6569"/><path d="M27.8 13.9c1.58 0.91 2.88 2.22 3.77 3.81 -1.65 1.03-3.54 1.62-5.49 1.71 0.08-1.97 0.66-3.88 1.71-5.55M31.57 27.52c-1.65-1.03-3.54-1.62-5.49-1.71 0.07 1.97 0.66 3.88 1.71 5.55 1.58-0.9 2.89-2.2 3.78-3.78M27.41 22.64c1.44 1.32 3.19 2.24 5.09 2.67 0.49-1.75 0.49-3.6 0-5.35C30.61 20.4 28.85 21.33 27.41 22.64M18.3 22.64c-1.43-1.33-3.18-2.27-5.08-2.72 -0.48 1.75-0.48 3.6 0 5.35 1.9-0.44 3.66-1.36 5.09-2.67M19.65 25.82c-1.95 0.09-3.84 0.68-5.49 1.71 0.89 1.59 2.2 2.9 3.79 3.81 1.05-1.67 1.64-3.58 1.72-5.55M19.67 19.34c-0.08-1.97-0.68-3.88-1.72-5.55 -1.6 0.93-2.91 2.29-3.8 3.92 1.65 1.03 3.55 1.62 5.49 1.71M22.87 27.18c-1.33 1.43-2.26 3.18-2.71 5.08 1.75 0.49 3.6 0.49 5.35 0 -0.44-1.9-1.36-3.65-2.67-5.09M22.84 18.06c1.31-1.44 2.23-3.19 2.68-5.09 -1.75-0.49-3.6-0.49-5.35 0 0.44 1.9 1.37 3.66 2.69 5.09" opacity="0.3"/><path d="M25.89 35.23c-0.01 0.94-0.1 1.87-0.28 2.79 -1.83 0.33-3.71 0.33-5.55 0 -0.18-0.92-0.27-1.85-0.28-2.78 0.01-1 0.13-1.99 0.38-2.96 1.75 0.49 3.6 0.49 5.35 0 0.23 0.97 0.35 1.96 0.34 2.95M32.52 19.94c0.49 1.75 0.49 3.6 0 5.35 0.97 0.23 1.97 0.35 2.96 0.36 0.94 0 1.87-0.1 2.79-0.28 0.32-1.82 0.32-3.68 0-5.49 -0.92-0.18-1.85-0.28-2.79-0.28C34.48 19.59 33.49 19.7 32.52 19.94M31.58 27.55c-0.9 1.58-2.2 2.89-3.78 3.79 0.52 0.85 1.14 1.64 1.84 2.34 0.68 0.66 1.42 1.26 2.22 1.78 1.51-1.06 2.83-2.37 3.89-3.88 -0.52-0.79-1.12-1.54-1.79-2.22 -0.7-0.71-1.48-1.32-2.33-1.84M13.26 25.28c-0.48-1.75-0.48-3.6 0-5.35 -0.97-0.23-1.96-0.35-2.96-0.34 -0.95 0.02-1.9 0.13-2.83 0.33 -0.33 1.82-0.33 3.68 0 5.49 0.92 0.18 1.85 0.28 2.79 0.28 1 0 1.99-0.12 2.96-0.35M27.8 13.9c1.58 0.91 2.88 2.22 3.77 3.81 0.85-0.52 1.63-1.14 2.33-1.84 0.67-0.68 1.26-1.42 1.79-2.22 -1.06-1.51-2.37-2.83-3.88-3.88 -0.79 0.52-1.54 1.12-2.22 1.78 -0.7 0.7-1.32 1.48-1.84 2.33M20.16 12.97c1.75-0.48 3.6-0.48 5.35 0 0.23-0.97 0.35-1.96 0.34-2.96 -0.01-0.93-0.1-1.87-0.28-2.79 -1.83-0.33-3.71-0.33-5.55 0 -0.18 0.92-0.27 1.85-0.28 2.79C19.77 11 19.91 12 20.16 12.97M14.15 17.7c0.9-1.59 2.21-2.9 3.8-3.81 -0.52-0.85-1.14-1.63-1.84-2.33 -0.68-0.66-1.42-1.25-2.22-1.78 -1.51 1.06-2.83 2.37-3.88 3.88 0.52 0.8 1.11 1.54 1.78 2.22C12.49 16.59 13.29 17.2 14.15 17.7M17.94 31.33c-1.58-0.9-2.88-2.21-3.77-3.78 -0.85 0.52-1.64 1.14-2.34 1.84 -0.66 0.68-1.25 1.42-1.78 2.22 1.06 1.51 2.37 2.83 3.88 3.88 0.79-0.52 1.54-1.11 2.22-1.77C16.85 33 17.45 32.2 17.94 31.33" opacity="0.6"/><path d="M187.52 13.89c1.3 0 2.41 1.04 2.41 2.41 0 1.37-1.1 2.41-2.41 2.41 -1.31 0-2.41-1.03-2.41-2.41C185.1 14.94 186.2 13.89 187.52 13.89M187.52 18.36c1.1 0 1.98-0.89 1.98-2.06 0-1.16-0.88-2.06-1.98-2.06 -1.11 0-1.99 0.9-1.99 2.06C185.53 17.47 186.4 18.36 187.52 18.36M186.59 14.9h1.07c0.66 0 0.98 0.26 0.98 0.81 0 0.51-0.32 0.72-0.74 0.77l0.81 1.24h-0.46l-0.76-1.21h-0.47v1.21h-0.43L186.59 14.9 186.59 14.9zM187.02 16.15h0.44c0.38 0 0.75-0.02 0.75-0.47 0-0.39-0.34-0.43-0.63-0.43h-0.57V16.15zM168.2 14.8h3.48l0.06 1.45c0.98-1.2 2.45-1.89 4-1.89 3.83 0 5.92 2.36 5.92 6.48v9.6h-3.61v-9.49c0.14-1.72-1.13-3.22-2.84-3.37s-3.23 1.13-3.37 2.85c-0.01 0.17-0.01 0.35 0 0.53v9.48h-3.61V14.8H168.2zM137.71 30.45h-3.62V7.72h3.62V30.45zM145.48 30.45h-3.62V14.8h3.62V30.45zM143.63 7.33c-1.23 0-2.22 0.99-2.22 2.22s1 2.22 2.22 2.22c1.23 0 2.22-0.99 2.22-2.22l0 0C145.85 8.32 144.85 7.33 143.63 7.33M126.42 14.8h3.62v15.65h-3.57l-0.1-1.64c-1.29 1.3-3.02 2.04-4.85 2.07 -4.26 0-7.42-3.43-7.42-8.26 0-5.11 3.42-8.26 7.43-8.26 1.84-0.05 3.62 0.71 4.85 2.09L126.42 14.8zM117.79 22.57c0 3 1.84 5.01 4.44 5.01 2.32 0 4.44-1.69 4.44-5s-2-5.01-4.44-5.01C119.56 17.56 117.79 19.68 117.79 22.57M160.69 22.57c0-3.26-2.05-5.01-4.44-5.01 -2.8 0-4.44 2.22-4.44 5.01 0 2.79 1.73 5.01 4.44 5.01C158.7 27.57 160.69 25.74 160.69 22.57M164.09 28.84c0 6.66-3.93 8.93-8.56 8.93 -1.92 0.03-3.82-0.4-5.55-1.24l0.9-3.11c1.43 0.81 3.04 1.23 4.67 1.22 2.58 0.14 4.78-1.84 4.91-4.42 0.01-0.1 0.01-0.2 0.01-0.31v-1.11c-1.25 1.38-3.03 2.14-4.88 2.1 -4.22 0-7.4-3.39-7.4-8.26 0-4.67 3-8.26 7.42-8.26 1.85-0.06 3.62 0.71 4.85 2.09V14.83h3.58v14.1L164.09 28.84zM81.31 14.8l4.05 9.41 4.03-9.41h4.03l-8.09 16.72 -8.01-16.71H81.31zM101.55 26.85c1.24 0.72 2.64 1.12 4.07 1.17 1.75 0 2.6-0.75 2.6-1.79 0-1.03-0.64-1.67-2.61-2.37 -3.1-1.04-4.32-2.66-4.32-4.55 0-2.8 2.22-4.95 5.88-4.95 1.47-0.03 2.92 0.29 4.23 0.94l-0.81 2.8c-1.02-0.57-2.16-0.89-3.33-0.91 -1.43 0-2.29 0.71-2.29 1.7 0 0.99 0.75 1.53 2.77 2.28 2.9 1.01 4.15 2.45 4.18 4.8 0 2.9-2.14 4.93-6.34 4.93 -1.68 0.03-3.33-0.35-4.83-1.11L101.55 26.85zM59.01 30.45h-3.61V14.8h3.61V30.45zM57.22 7.33c-1.23 0-2.22 0.99-2.22 2.22s0.99 2.22 2.22 2.22 2.22-0.99 2.22-2.22l0 0C59.44 8.32 58.45 7.33 57.22 7.33M98.29 30.45h-3.6V14.8h3.61v15.65H98.29zM96.5 7.33c-1.23 0-2.22 0.99-2.22 2.22s0.99 2.22 2.22 2.22c1.23 0 2.22-0.99 2.22-2.22l0 0C98.72 8.32 97.73 7.33 96.5 7.33M63.12 14.8h3.49l0.06 1.45c0.98-1.23 2.48-1.92 4.05-1.87 3.5 0 5.86 2.36 5.86 6.48v9.6H72.96v-9.42c0.23-1.71-0.97-3.28-2.68-3.51 -1.71-0.23-3.28 0.97-3.51 2.68 -0.04 0.28-0.04 0.56 0 0.83v9.44h-3.66L63.12 14.8 63.12 14.8zM31.81 9.79c2.18-1.43 4.58-2.5 7.09-3.18 -0.69 2.51-1.77 4.89-3.2 7.07 -1.06-1.51-2.37-2.83-3.88-3.88M25.61 7.23c-0.53-2.56-1.45-5.01-2.74-7.28 -1.28 2.27-2.19 4.73-2.71 7.28 0.91-0.16 1.83-0.24 2.75-0.24 0.92 0 1.84 0.08 2.74 0.24M31.81 35.46c2.18 1.44 4.57 2.52 7.09 3.21 -0.69-2.52-1.76-4.92-3.2-7.1 -1.06 1.51-2.37 2.83-3.88 3.89M7.47 19.93c-2.55 0.51-5.01 1.42-7.28 2.7 2.27 1.29 4.72 2.22 7.28 2.74 -0.33-1.82-0.33-3.68 0-5.49M38.26 25.36c2.56-0.52 5.01-1.45 7.28-2.74 -2.27-1.27-4.73-2.19-7.28-2.7 0.32 1.82 0.32 3.68 0 5.49M13.92 9.88c-2.17-1.45-4.56-2.56-7.07-3.27 0.69 2.52 1.77 4.91 3.2 7.09 1.06-1.51 2.37-2.83 3.89-3.88M20.16 38.02c0.53 2.56 1.46 5.01 2.75 7.28 1.29-2.27 2.21-4.73 2.74-7.28 -1.83 0.33-3.71 0.33-5.55 0M10.03 31.57c-1.43 2.18-2.5 4.58-3.18 7.09 2.51-0.69 4.9-1.77 7.08-3.2 -1.51-1.05-2.83-2.37-3.88-3.88"/></svg>