<svg class="sesameicon" aria-hidden="true" role="img" xmlns="http://www.w3.org/2000/svg" width="38.05" height="32.44" viewBox="0 0 38.05 32.44"><path d="M13.75 19.04c-1.4-0.73-3.33-0.72-4.48 0.48 -1.17 1.23-0.39 3.07 1 3.9 1.36 0.8 3.49 0.73 4.51-0.42C15.94 21.69 15.23 19.81 13.75 19.04M7.98 26.66c-1.55-0.82-3.69-0.84-5.01 0.32 -1.68 1.47-0.88 3.77 1.04 4.88 1.58 0.91 3.99 0.72 5.13-0.51C10.52 29.85 9.83 27.64 7.98 26.66M5.11 9.44c1.31 0.67 1.72 2.1 0.36 3.02 -1.25 0.85-3.16 0.77-4.45 0.01 -1.23-0.72-1.45-2.1-0.1-2.92C2.1 8.83 3.87 8.81 5.11 9.44M13.8 9.19c-1.41-0.72-3.66-0.6-4.03 0.71 -0.32 1.15 1.38 2.69 3.64 2.47 0.69-0.07 1.63-0.47 1.76-1.29C15.31 10.2 14.49 9.55 13.8 9.19M18.12 13.32c-0.96-0.47-2.68-0.77-3.56 0.07 -1.03 0.99-0.26 2.4 0.89 3.09 1.14 0.67 2.84 0.79 3.78-0.11C20.3 15.35 19.27 13.88 18.12 13.32M24.62 14.66c1.2 0.62 2.19 1.83 1.68 2.89 -0.54 1.12-2.23 1.11-3.55 0.44 -1.33-0.67-2.13-2.08-1.49-3.02C21.96 13.91 23.58 14.13 24.62 14.66M28.77 21.8c1.35 0.69 2.6 2.38 2 3.94 -0.64 1.65-2.69 1.43-3.94 0.69 -1.19-0.7-2.38-2.13-2.01-3.6C25.26 21.04 27.45 21.12 28.77 21.8M21.47 8.93c-0.89-0.43-2.43-0.73-3.16 0.09 -0.15 0.17-0.23 0.37-0.25 0.57 -0.06 0.77 0.69 1.55 1.65 1.96 1.12 0.48 2.52 0.46 3.04-0.33C23.35 10.31 22.27 9.31 21.47 8.93" class="bottom"/><path d="M14.38 5.56c-0.82-0.39-2.03-0.54-2.78-0.05 -0.98 0.64-0.28 1.61 0.58 2.04 0.98 0.49 2.09 0.52 2.8 0.12C15.78 7.23 15.67 6.18 14.38 5.56M36.19 16.3c0.88 0.43 2.03 1.55 1.84 2.52 -0.04 0.21-0.14 0.38-0.29 0.51 -1.37 1.08-4.57-1.11-4.13-2.71 0.06-0.2 0.19-0.36 0.35-0.47C34.58 15.72 35.55 15.98 36.19 16.3M28.55 12.53c1.06 0.53 1.89 1.6 1.55 2.34 -0.4 0.88-1.78 0.81-2.84 0.26 -1.01-0.52-1.8-1.48-1.36-2.35C26.2 12.15 27.36 11.94 28.55 12.53M27.92 8.73c0.88 0.4 1.72 1.28 1.39 1.95 -0.36 0.72-1.56 0.53-2.17 0.31 -0.73-0.26-1.7-0.9-1.8-1.73 -0.02-0.17 0.02-0.36 0.14-0.49C25.98 8.14 27.19 8.39 27.92 8.73M33.77 8.48c0.99 0.5 1.69 1.23 1.49 1.84 -0.27 0.83-1.69 0.44-2.26 0.17 -0.67-0.33-1.8-1.23-1.46-1.93C31.9 7.84 33.23 8.21 33.77 8.48M24 5.55c0.61 0.3 1.52 1.03 1.1 1.73 -0.33 0.54-1.54 0.51-2.46 0.06 -0.67-0.32-1.49-1-1.2-1.66C21.65 5.17 22.84 4.99 24 5.55M18.66 4.28c1.24 0.63 1.29 1.3 0.97 1.71 -0.3 0.39-1.35 0.57-2.47 0.13 -1.09-0.44-1.77-1.3-1.16-1.88C16.48 3.77 17.76 3.81 18.66 4.28M7.79 2.32c1.02 0.48 1.43 1.44 0.32 1.92C7.27 4.61 6.19 4.45 5.36 4.11 4.39 3.73 3.84 2.78 4.73 2.26 5.56 1.77 6.91 1.9 7.79 2.32M16.49 0.36c0.4 0.19 1.07 0.6 0.99 1.12 -0.02 0.12-0.08 0.24-0.19 0.33 -0.48 0.4-1.48 0.33-2.14 0.12 -0.93-0.29-1.64-1.01-1.32-1.49C14.21-0.15 15.51-0.11 16.49 0.36M26.12 2.79c0.9 0.44 1.31 1.07 1.09 1.42 -0.32 0.49-1.36 0.34-1.85 0.15 -0.56-0.21-1.47-0.71-1.52-1.33 -0.01-0.12 0.02-0.24 0.12-0.34C24.37 2.25 25.58 2.53 26.12 2.79" class="top"/></svg>